<?xml version="1.0" encoding="UTF-8"?>
<svg version="1.1" xmlns="http://www.w3.org/2000/svg" width="843" height="195">
<path d="M0 0 C0.78503906 0.556875 0.78503906 0.556875 1.5859375 1.125 C3.9974699 3.097693 3.9974699 3.097693 6.4609375 2.8125 C8.55710022 1.86654148 8.55710022 1.86654148 10.2109375 -1.125 C13.11928635 -1.39160183 15.81232018 -1.47279124 18.71875 -1.41796875 C19.55936981 -1.41372391 20.39998962 -1.40947906 21.26608276 -1.40510559 C23.95635743 -1.38828532 26.64588849 -1.35062781 29.3359375 -1.3125 C31.15754128 -1.29745745 32.97915678 -1.2837683 34.80078125 -1.27148438 C39.27112074 -1.23837094 43.74090296 -1.18656637 48.2109375 -1.125 C47.68503728 10.6072916 45.38330923 22.07794964 43.31640625 33.61328125 C42.9235592 35.82458864 42.53101185 38.03594928 42.13874817 40.24736023 C41.31773542 44.868282 40.49267732 49.48845852 39.66479492 54.1081543 C38.61109455 59.99015566 37.56815937 65.87400554 36.52837658 71.75848103 C35.7205086 76.32273013 34.9065164 80.88587143 34.09078407 85.44872093 C33.70416169 87.61581191 33.31945868 89.78324633 32.93681908 91.95104408 C25.19695909 135.7285087 25.19695909 135.7285087 13.1328125 145.5703125 C-0.251127 154.38060361 -13.46435777 155.20898999 -29.12670898 155.13574219 C-31.82103498 155.12512035 -34.51467997 155.13562742 -37.20898438 155.1484375 C-48.20880641 155.15600454 -58.90134162 154.43993721 -69.7890625 152.875 C-69.33330243 145.57246258 -68.48112727 138.4030444 -67.2890625 131.1875 C-67.15846436 130.38521973 -67.02786621 129.58293945 -66.89331055 128.75634766 C-65.91509238 123.00102988 -65.91509238 123.00102988 -64.7890625 121.875 C-61.89213194 121.76412275 -59.01503333 121.7133475 -56.1171875 121.69921875 C-54.32030088 121.67601329 -52.52342585 121.65189566 -50.7265625 121.62695312 C-47.88468768 121.59187128 -45.04323659 121.56251975 -42.20117188 121.54907227 C-39.46431623 121.53357613 -36.72871185 121.49334662 -33.9921875 121.44921875 C-33.14617981 121.45112717 -32.30017212 121.45303558 -31.42852783 121.45500183 C-27.37010238 121.37105156 -25.2824749 121.18604264 -21.77172852 118.97290039 C-19.69327443 116.77364464 -19.01518995 115.5629679 -18.4765625 112.625 C-18.13625 110.76875 -18.13625 110.76875 -17.7890625 108.875 C-19.18125 109.555625 -19.18125 109.555625 -20.6015625 110.25 C-32.74568614 115.4057547 -47.49624536 115.49063425 -59.7890625 110.875 C-66.98652035 106.50623737 -70.61402127 100.89878016 -72.7890625 92.875 C-75.12459771 82.36509155 -73.72344249 71.32730787 -72.1015625 60.8125 C-71.83255127 59.05184204 -71.83255127 59.05184204 -71.55810547 57.25561523 C-68.31470093 36.90165365 -63.6145921 15.86905477 -46.81640625 2.15625 C-34.43625996 -5.66781163 -12.80248222 -8.05046917 0 0 Z M-13.4765625 26.5 C-17.17422193 28.69860831 -18.52147824 30.8884113 -19.64868164 35.04443359 C-19.87160889 36.27500488 -20.09453613 37.50557617 -20.32421875 38.7734375 C-20.44840683 39.44484772 -20.57259491 40.11625793 -20.70054626 40.80801392 C-21.09443671 42.95362682 -21.47288373 45.10165648 -21.8515625 47.25 C-22.10908687 48.65512037 -22.36754245 50.0600704 -22.62695312 51.46484375 C-23.25958873 54.92086296 -23.86308986 58.38093981 -24.44659424 61.84558105 C-24.67501547 63.19917328 -24.90723938 64.55212926 -25.14324951 65.90441895 C-25.47506991 67.8219823 -25.78677071 69.742994 -26.09765625 71.6640625 C-26.27997803 72.7670166 -26.4622998 73.8699707 -26.65014648 75.00634766 C-26.79765977 78.05253586 -26.53387152 79.40490207 -24.7890625 81.875 C-21.40721765 83.32436208 -19.78152479 82.87266472 -16.24609375 81.77734375 C-12.62998858 80.21453503 -12.62998858 80.21453503 -11.40625 77.1015625 C-11.16132813 75.91304687 -10.91640625 74.72453125 -10.6640625 73.5 C-10.52137939 72.83170166 -10.37869629 72.16340332 -10.23168945 71.47485352 C-9.71135553 68.94794928 -9.25068905 66.41329709 -8.7890625 63.875 C-8.45962646 62.15337646 -8.45962646 62.15337646 -8.12353516 60.39697266 C-7.38815571 56.53884448 -6.67715518 52.67709075 -5.9765625 48.8125 C-5.62924072 46.92168701 -5.62924072 46.92168701 -5.27490234 44.99267578 C-3.79448971 36.41572154 -3.79448971 36.41572154 -4.7890625 27.875 C-8.0205916 26.52226689 -10.01143462 25.69415631 -13.4765625 26.5 Z " fill="#231F20" transform="translate(331.7890625,40.125)"/>
<path d="M0 0 C15.51 0 31.02 0 47 0 C42.17346695 29.25535375 37.13937682 58.47238424 32.05737305 87.68432617 C31.01681925 93.66609102 29.9787421 99.64828057 28.94194096 105.63069683 C27.93162311 111.45955986 26.91875244 117.28797734 25.90488625 123.11622429 C25.47792445 125.57256164 25.05170821 128.0290287 24.62625694 130.48562813 C24.03778188 133.88216224 23.44639838 137.27817726 22.85424805 140.67407227 C22.68025482 141.68206375 22.5062616 142.69005524 22.32699585 143.72859192 C22.16600906 144.64831787 22.00502228 145.56804382 21.8391571 146.51564026 C21.63099885 147.7134303 21.63099885 147.7134303 21.41863537 148.93541813 C21 151 21 151 20 154 C14.64323369 154.12353289 9.28729474 154.21430573 3.92944336 154.2746582 C2.10670533 154.29981397 0.28406828 154.33394285 -1.53833008 154.37719727 C-4.15731693 154.43780546 -6.77497153 154.46619761 -9.39453125 154.48828125 C-10.21025101 154.51408768 -11.02597076 154.5398941 -11.8664093 154.56648254 C-14.17114258 154.56762695 -14.17114258 154.56762695 -18 154 C-20.0378418 151.46948242 -20.0378418 151.46948242 -21 149 C-21.89460937 149.40992188 -22.78921875 149.81984375 -23.7109375 150.2421875 C-39.35666486 157.27451193 -54.74225697 159.57994759 -71.4375 153.8125 C-77.18091603 149.75008378 -80.84002808 144.99652114 -82.51953125 138.10546875 C-86.57959245 111.86360976 -79.88292337 70.36918706 -64.37890625 48.73828125 C-58.79730374 41.76450075 -51.81599551 37.69923801 -42.98828125 36.28515625 C-30.63472656 35.10632031 -19.34319002 35.32840499 -8 41 C-7.22744206 37.16701225 -6.45729665 33.33354318 -5.6875 29.5 C-5.47416016 28.44167969 -5.26082031 27.38335938 -5.04101562 26.29296875 C-3.28526205 17.54040613 -1.64553067 8.77616357 0 0 Z M-27.06263733 71.05528259 C-28.91504315 74.89841178 -29.47174998 79.04089 -30.17578125 83.21875 C-30.35006149 84.19485229 -30.52434174 85.17095459 -30.7039032 86.17663574 C-31.06767147 88.23293083 -31.42445896 90.2904717 -31.7746582 92.34912109 C-32.31126654 95.49277391 -32.87361736 98.63102234 -33.43945312 101.76953125 C-33.79060219 103.77316827 -34.14026216 105.77706695 -34.48828125 107.78125 C-34.65588455 108.71578003 -34.82348785 109.65031006 -34.99617004 110.61315918 C-35.78193124 115.31241882 -36.35250339 119.32613012 -35 124 C-33.07720547 126.34783968 -33.07720547 126.34783968 -29.6875 126.3125 C-25.51832432 125.95918003 -24.0982671 125.79417907 -21 123 C-19.69143962 119.31830062 -19.12442093 115.54101137 -18.5078125 111.69140625 C-18.21522049 110.01400612 -18.21522049 110.01400612 -17.91671753 108.30271912 C-17.50851468 105.93816716 -17.1107528 103.57179251 -16.72265625 101.20385742 C-16.12725399 97.57623298 -15.50013589 93.95522681 -14.8671875 90.33398438 C-14.47468964 88.03677754 -14.08400341 85.73926029 -13.6953125 83.44140625 C-13.50897247 82.35589981 -13.32263245 81.27039337 -13.13064575 80.1519928 C-12.96652191 79.14091965 -12.80239807 78.1298465 -12.63330078 77.08813477 C-12.48627716 76.2000563 -12.33925354 75.31197784 -12.18777466 74.39698792 C-11.99743239 71.96722382 -12.20862393 70.29296092 -13 68 C-14.65236085 66.34763915 -16.54213544 66.67219551 -18.8125 66.5625 C-19.68519531 66.50191406 -20.55789063 66.44132812 -21.45703125 66.37890625 C-24.56623946 67.13829812 -25.39793557 68.40515323 -27.06263733 71.05528259 Z " fill="#231F20" transform="translate(771,0)"/>
<path d="M0 0 C15.51 0 31.02 0 47 0 C41.42888422 33.69845641 41.42888422 33.69845641 39.04296875 46.98046875 C38.88241501 47.8786734 38.72186127 48.77687805 38.55644226 49.70230103 C37.77514434 54.07279063 36.98661396 58.44172919 36.18530273 62.80859375 C35.89661477 64.41790459 35.60826795 66.02727668 35.3203125 67.63671875 C35.18622482 68.35103561 35.05213715 69.06535248 34.91398621 69.80131531 C34.02316441 74.8464877 33.58357986 79.87722077 34 85 C35.86224861 86.86224861 38.42531175 86.12354714 40.89453125 86.1328125 C43.04203189 85.99734864 44.92428678 85.5462546 47 85 C47.10505859 83.86554443 47.21011719 82.73108887 47.31835938 81.56225586 C48.16319681 73.99103565 49.58349462 66.50297308 50.90625 59.00390625 C51.19404322 57.36248951 51.48167899 55.72104515 51.76916504 54.07957458 C52.36916311 50.65762084 52.97121105 47.23603579 53.57470703 43.81469727 C54.34883545 39.42490125 55.11753901 35.03417509 55.88471222 30.64315891 C56.47610478 27.26196453 57.07045188 23.8812947 57.66569519 20.50077629 C57.95051766 18.88097606 58.23438579 17.26100772 58.51728821 15.64087105 C58.91149657 13.38576787 59.30969943 11.13140632 59.70898438 8.87719727 C59.93469116 7.59418228 60.16039795 6.3111673 60.39294434 4.98927307 C61 2 61 2 62 0 C77.18 0 92.36 0 108 0 C107.35525215 7.73697416 106.61249461 15.11784634 105.25 22.7097168 C104.98884399 24.20223213 104.98884399 24.20223213 104.72241211 25.72489929 C104.1536044 28.96730361 103.57704824 32.20827172 103 35.44921875 C102.59990204 37.71647426 102.20016829 39.98379407 101.80078125 42.25117493 C100.96697591 46.97787962 100.12943032 51.70390112 99.2890625 56.42944336 C98.20986518 62.49921183 97.13914726 68.57043949 96.07104492 74.642169 C95.24879762 79.31192399 94.42263847 83.98097999 93.59521484 88.64982033 C93.19859029 90.89003911 92.80308133 93.13045569 92.40869141 95.37106895 C91.85970641 98.48596361 91.30559306 101.59990125 90.75 104.71362305 C90.58685303 105.64495056 90.42370605 106.57627808 90.25561523 107.53582764 C89.11434648 113.88565352 89.11434648 113.88565352 88 115 C82.76372673 115.29168353 77.52487119 115.31400875 72.28125 115.35009766 C70.51386354 115.3666669 68.74654435 115.39396997 66.97949219 115.43212891 C64.43649407 115.48679148 61.8950683 115.50875333 59.3515625 115.5234375 C58.56085358 115.54610687 57.77014465 115.56877625 56.95547485 115.59213257 C54.72119141 115.58349609 54.72119141 115.58349609 51 115 C48.97802734 112.46728516 48.97802734 112.46728516 48 110 C47.32839844 110.27714844 46.65679687 110.55429688 45.96484375 110.83984375 C42.53036213 112.18377134 39.05750849 113.38820502 35.5625 114.5625 C34.91990234 114.78357422 34.27730469 115.00464844 33.61523438 115.23242188 C21.69241585 119.23897307 8.87695158 119.37245476 -3 115 C-9.26840534 111.28611721 -12.10514405 106.91559573 -14 100 C-16.29034784 82.31638412 -11.66879404 64.04916853 -8.49450684 46.7097168 C-7.96874891 43.82875545 -7.44899502 40.9467597 -6.93066406 38.06445312 C-6.74617706 37.03870178 -6.56169006 36.01295044 -6.37161255 34.95611572 C-6.18968353 33.94450378 -6.00775452 32.93289185 -5.8203125 31.890625 C-3.90724074 21.25537394 -1.95080489 10.62852319 0 0 Z " fill="#231F20" transform="translate(392,39)"/>
<path d="M0 0 C1.18907959 0.00491455 2.37815918 0.0098291 3.60327148 0.01489258 C16.55278191 0.18670686 28.63337408 1.2837122 39.875 8.3125 C40.82375 8.89 41.7725 9.4675 42.75 10.0625 C48.82660499 16.49655235 49.29177659 23.43514571 49.12008667 31.97027588 C48.78135163 39.89205632 47.24537692 47.67200651 45.84765625 55.4609375 C45.53517849 57.25297098 45.22370919 59.04518056 44.91319275 60.83755493 C44.26596439 64.55846363 43.61062522 68.27780992 42.94848633 71.99609375 C42.09844917 76.77016949 41.26325683 81.54669062 40.43325138 86.32428551 C39.63906159 90.89157966 38.83726781 95.45752922 38.03515625 100.0234375 C37.80662303 101.3307036 37.80662303 101.3307036 37.57347298 102.66437912 C37.14445299 105.11084962 36.70998302 107.55628383 36.27368164 110.00146484 C36.14636658 110.73171371 36.01905151 111.46196259 35.88787842 112.21434021 C34.9897404 117.1977596 34.9897404 117.1977596 33.875 118.3125 C28.63872673 118.60418353 23.39987119 118.62650875 18.15625 118.66259766 C16.38886354 118.6791669 14.62154435 118.70646997 12.85449219 118.74462891 C10.31149407 118.79929148 7.7700683 118.82125333 5.2265625 118.8359375 C4.43585358 118.85860687 3.64514465 118.88127625 2.83047485 118.90463257 C0.59619141 118.89599609 0.59619141 118.89599609 -3.125 118.3125 C-5.14697266 115.77978516 -5.14697266 115.77978516 -6.125 113.3125 C-6.81722656 113.58964844 -7.50945313 113.86679688 -8.22265625 114.15234375 C-9.18042969 114.53519531 -10.13820313 114.91804688 -11.125 115.3125 C-12.15496094 115.72628906 -13.18492187 116.14007813 -14.24609375 116.56640625 C-15.88771484 117.21416016 -15.88771484 117.21416016 -17.5625 117.875 C-19.20025391 118.52662109 -19.20025391 118.52662109 -20.87109375 119.19140625 C-33.04610231 123.3861571 -47.55880928 122.11945345 -59.421875 117.3984375 C-64.5786982 114.68779966 -67.87920536 110.60549317 -70.125 105.3125 C-72.25096023 92.96821477 -71.04057452 80.93482247 -64.125 70.3125 C-55.81707678 59.20634676 -41.15831699 56.10334166 -28.125 54.1875 C-19.15525451 53.0766956 -10.15118635 52.68170891 -1.125 52.3125 C-0.327163 45.61636804 0.00410853 39.05483419 -0.125 32.3125 C-4.89011624 30.91099522 -5.84729386 31.55326462 -11.125 33.3125 C-12.445 37.2725 -13.765 41.2325 -15.125 45.3125 C-29.315 45.3125 -43.505 45.3125 -58.125 45.3125 C-56.06157252 33.96364889 -53.62025002 24.22577029 -46.125 15.3125 C-45.465 15.3125 -44.805 15.3125 -44.125 15.3125 C-44.125 14.6525 -44.125 13.9925 -44.125 13.3125 C-32.95036619 1.80026396 -15.11682608 -0.0736677 0 0 Z M-18.125 71.3125 C-21.39233055 76.6491399 -21.99739168 82.11512014 -21.125 88.3125 C-19.20220547 90.66033968 -19.20220547 90.66033968 -15.8125 90.625 C-11.77199736 90.28258452 -10.21866075 89.88378852 -7.125 87.3125 C-6.25873955 84.52154483 -5.71105752 82.16586722 -5.3125 79.3125 C-5.19197266 78.58804688 -5.07144531 77.86359375 -4.94726562 77.1171875 C-4.46893919 74.15429687 -4.125 71.31690128 -4.125 68.3125 C-9.63070464 68.02772217 -13.47837823 67.96260989 -18.125 71.3125 Z " fill="#231F20" transform="translate(562.125,35.6875)"/>
<path d="M0 0 C15.84 0 31.68 0 48 0 C46.87498378 11.25016224 46.87498378 11.25016224 46.203125 15.04794312 C45.97604858 16.34725769 45.97604858 16.34725769 45.74438477 17.67282104 C45.58123779 18.58435944 45.41809082 19.49589783 45.25 20.43505859 C44.98884399 21.91990753 44.98884399 21.91990753 44.72241211 23.43475342 C44.15186377 26.67329358 43.57603479 29.91086911 43 33.1484375 C42.59997701 35.41137774 42.20024194 37.67436888 41.80078125 39.93740845 C40.96581319 44.66326763 40.12840971 49.38868619 39.2890625 54.11376953 C38.21284331 60.17260593 37.14114046 66.23222988 36.07104492 72.2921505 C35.24699688 76.95742196 34.42138598 81.62241565 33.59521484 86.28731155 C33.19940694 88.522404 32.8038976 90.75754934 32.40869141 92.99274826 C31.85726352 96.10919788 31.30392815 99.22530254 30.75 102.34130859 C30.58685303 103.26499237 30.42370605 104.18867615 30.25561523 105.14035034 C30.02853882 106.4142865 30.02853882 106.4142865 29.796875 107.71395874 C29.66635742 108.44946646 29.53583984 109.18497417 29.40136719 109.94277 C29.00452111 111.97682681 28.50263271 113.98946916 28 116 C35.59 116 43.18 116 51 116 C51.495 121.1046875 51.495 121.1046875 52 126.3125 C52.15662109 127.88511597 52.15662109 127.88511597 52.31640625 129.48950195 C52.39761719 130.35534912 52.47882813 131.22119629 52.5625 132.11328125 C52.64628906 132.97735596 52.73007813 133.84143066 52.81640625 134.73168945 C53.08317668 139.48069981 53 144.24350278 53 149 C26.93 149 0.86 149 -26 149 C-24.8749548 137.74954797 -24.8749548 137.74954797 -24.02003479 132.83332825 C-23.8280249 131.71902939 -23.63601501 130.60473053 -23.43818665 129.45666504 C-23.22985703 128.26931763 -23.0215274 127.08197021 -22.80688477 125.85864258 C-22.5856192 124.58095505 -22.36435364 123.30326752 -22.13638306 121.98686218 C-21.5343117 118.51129864 -20.92774143 115.03653489 -20.32010007 111.56194139 C-19.81167853 108.6520497 -19.30558068 105.74175587 -18.79949421 102.83145732 C-17.60544085 95.96496044 -16.40781518 89.09909353 -15.20776367 82.23364258 C-13.97236596 75.16569277 -12.74232073 68.09682676 -11.51501042 61.0274685 C-10.45788235 54.93924737 -9.39779277 48.85154722 -8.33526462 42.76426619 C-7.70205928 39.13655707 -7.06987591 35.50867807 -6.44040108 31.8803196 C-5.73877217 27.8371724 -5.03094099 23.79513468 -4.32250977 19.75317383 C-4.11620438 18.55975372 -3.90989899 17.36633362 -3.69734192 16.13674927 C-3.50251221 15.03090988 -3.3076825 13.9250705 -3.10694885 12.78572083 C-2.94048135 11.83174817 -2.77401384 10.87777552 -2.60250187 9.8948946 C-1.90758588 6.55596961 -0.93692908 3.27925178 0 0 Z " fill="#231F20" transform="translate(26,5)"/>
<path d="M0 0 C1.34985763 3.7910895 0.70636529 6.82801741 0.00390625 10.734375 C-0.33930664 12.67763672 -0.33930664 12.67763672 -0.68945312 14.66015625 C-0.93862403 16.02347005 -1.18797528 17.38675091 -1.4375 18.75 C-1.68369766 20.12877166 -1.92914884 21.50767683 -2.17382812 22.88671875 C-2.77521453 26.25919938 -3.38421558 29.63012372 -4 33 C-5.0621875 33.17015625 -6.124375 33.3403125 -7.21875 33.515625 C-18.22735242 35.12391887 -18.22735242 35.12391887 -28 40 C-30.52207431 47.76803722 -31.45960115 56.05204385 -32.8203125 64.09375 C-33.08622911 65.65177914 -33.35241794 67.20976185 -33.61886597 68.7677002 C-34.31531316 72.84422752 -35.00808878 76.92137032 -35.70007324 80.99865723 C-36.53330602 85.90350436 -37.37114718 90.80756617 -38.20820618 95.71176147 C-39.47564797 103.14058217 -40.73727178 110.57036973 -42 118 C-57.51 118 -73.02 118 -89 118 C-86.70172107 100.76290805 -86.70172107 100.76290805 -85.22827148 92.44042969 C-85.06377502 91.49696182 -84.89927856 90.55349396 -84.72979736 89.58143616 C-84.19655582 86.52771642 -83.65897693 83.47478027 -83.12109375 80.421875 C-82.7450035 78.27577156 -82.36911701 76.1296324 -81.99342346 73.98345947 C-81.21117479 69.51874127 -80.42682355 65.05439934 -79.64086914 60.59033203 C-78.63289347 54.86450152 -77.62975056 49.13783683 -76.62808132 43.41090012 C-75.85515952 38.99436344 -75.07998678 34.57822423 -74.30409431 30.16220856 C-73.93306052 28.04915758 -73.56266908 25.93599371 -73.19293022 23.82271576 C-72.67831749 20.8836876 -72.16074272 17.94519657 -71.64233398 15.00683594 C-71.4901088 14.1341658 -71.33788361 13.26149567 -71.18104553 12.36238098 C-71.03952057 11.56376144 -70.89799561 10.76514191 -70.75218201 9.94232178 C-70.63033759 9.24925808 -70.50849318 8.55619438 -70.3829565 7.84212875 C-70 6 -70 6 -69 3 C-63.64323369 2.87646711 -58.28729474 2.78569427 -52.92944336 2.7253418 C-51.10670533 2.70018603 -49.28406828 2.66605715 -47.46166992 2.62280273 C-44.84268307 2.56219454 -42.22502847 2.53380239 -39.60546875 2.51171875 C-38.78974899 2.48591232 -37.97402924 2.4601059 -37.1335907 2.43351746 C-34.82885742 2.43237305 -34.82885742 2.43237305 -31 3 C-28.9621582 5.53051758 -28.9621582 5.53051758 -28 8 C-26.515 6.8553125 -26.515 6.8553125 -25 5.6875 C-16.83704942 -0.03632192 -9.88839278 -0.40699178 0 0 Z " fill="#231F20" transform="translate(697,36)"/>
<path d="M0 0 C1.22244667 0.00333092 1.22244667 0.00333092 2.46958923 0.00672913 C3.85090782 0.00684242 3.85090782 0.00684242 5.26013184 0.00695801 C6.2611644 0.01211929 7.26219696 0.01728058 8.29356384 0.02259827 C9.31316696 0.02401321 10.33277008 0.02542816 11.38327026 0.02688599 C14.65417867 0.03250355 17.92501972 0.04505902 21.19590759 0.05775452 C23.40749515 0.06276725 25.61908377 0.06733055 27.83067322 0.07142639 C33.26494192 0.08247868 38.69916781 0.09963016 44.13340759 0.12025452 C43.56747121 7.42903257 42.66040199 14.59145085 41.38340759 21.8082428 C41.20930359 22.81286057 41.03519958 23.81747833 40.8558197 24.85253906 C40.28612236 28.13267309 39.70999142 31.41163708 39.13340759 34.69056702 C38.73339275 36.98168719 38.33365754 39.2728562 37.93418884 41.56407166 C37.09982762 46.34372489 36.26230381 51.12280991 35.42247009 55.90150452 C34.34392743 62.03980751 33.27305182 68.17941907 32.20445251 74.31945992 C31.3821334 79.0398108 30.55598013 83.7594842 29.72862244 88.47895432 C29.33194283 90.74428543 28.93643414 93.00982189 28.542099 95.27556229 C27.99308278 98.42647477 27.43896398 101.57644659 26.88340759 104.72621155 C26.72026062 105.66846085 26.55711365 106.61071014 26.38902283 107.58151245 C26.16194641 108.85971611 26.16194641 108.85971611 25.93028259 110.16374207 C25.79976501 110.90809069 25.66924744 111.65243931 25.53477478 112.41934395 C25.13340759 114.12025452 25.13340759 114.12025452 24.13340759 115.12025452 C22.69050973 115.21321267 21.24310975 115.23771965 19.79722595 115.23377991 C18.41590736 115.23366661 18.41590736 115.23366661 17.00668335 115.23355103 C16.00565079 115.22838974 15.00461823 115.22322845 13.97325134 115.21791077 C12.44384666 115.21578835 12.44384666 115.21578835 10.88354492 115.21362305 C7.61263652 115.20800548 4.34179546 115.19545002 1.07090759 115.18275452 C-1.14067996 115.17774178 -3.35226859 115.17317848 -5.56385803 115.16908264 C-10.99812673 115.15803035 -16.43235263 115.14087887 -21.86659241 115.12025452 C-21.30065603 107.81147646 -20.3935868 100.64905818 -19.11659241 93.43226624 C-18.9424884 92.42764847 -18.7683844 91.4230307 -18.58900452 90.38796997 C-18.01930718 87.10783594 -17.44317623 83.82887196 -16.86659241 80.54994202 C-16.46657757 78.25882184 -16.06684235 75.96765284 -15.66737366 73.67643738 C-14.83301244 68.89678414 -13.99548863 64.11769913 -13.15565491 59.33900452 C-12.07711224 53.20070152 -11.00623663 47.06108996 -9.93763733 40.92104912 C-9.11531821 36.20069823 -8.28916494 31.48102484 -7.46180725 26.76155472 C-7.06512764 24.49622361 -6.66961895 22.23068714 -6.27528381 19.96494675 C-5.72626759 16.81403426 -5.17214879 13.66406244 -4.61659241 10.51429749 C-4.45344543 9.57204819 -4.29029846 8.62979889 -4.12220764 7.65899658 C-3.97082336 6.80686081 -3.81943909 5.95472504 -3.66346741 5.07676697 C-3.53294983 4.33241835 -3.40243225 3.58806973 -3.26795959 2.82116508 C-2.71035875 0.45816883 -2.44743565 0.15767513 0 0 Z " fill="#231F20" transform="translate(104.86659240722656,38.87974548339844)"/>
<path d="M0 0 C18.15 0 36.3 0 55 0 C54.07139747 4.64301263 52.63887474 8.62088184 50.81640625 12.9453125 C50.48943253 13.73138382 50.1624588 14.51745514 49.82557678 15.3273468 C48.74230204 17.92843184 47.65245764 20.52670908 46.5625 23.125 C45.79893817 24.95435064 45.03576111 26.78386191 44.27294922 28.61352539 C42.26113932 33.43568017 40.24361414 38.25542329 38.22479248 43.074646 C36.62353891 46.899158 35.02578183 50.72512547 33.42817688 54.55116272 C25.00483368 74.72320731 16.53746678 94.87597117 8 115 C-4.54 115 -17.08 115 -30 115 C-30.33 114.34 -30.66 113.68 -31 113 C-30.25 110.77392578 -30.25 110.77392578 -29 107.9453125 C-28.53255371 106.8737793 -28.06510742 105.80224609 -27.58349609 104.69824219 C-27.06094238 103.51907227 -26.53838867 102.33990234 -26 101.125 C-24.88391772 98.57209394 -23.7740999 96.01647671 -22.6640625 93.4609375 C-22.36956207 92.78478394 -22.07506165 92.10863037 -21.77163696 91.4119873 C-18.21502551 83.22943458 -14.79592388 74.98996542 -11.375 66.75 C-10.73761198 65.21660786 -10.10016113 63.68324184 -9.46264648 62.14990234 C-8.22527142 59.17311699 -6.98860045 56.19604052 -5.75244141 53.21875 C-3.19494033 47.0600779 -0.62854267 40.90511737 1.9375 34.75 C2.73832497 32.82814322 3.53911154 30.90627043 4.33984375 28.984375 C4.88769531 27.66953125 5.43554688 26.3546875 6 25 C0.72 25 -4.56 25 -10 25 C-9.0925 22.545625 -8.185 20.09125 -7.25 17.5625 C-6.97317383 16.80912354 -6.69634766 16.05574707 -6.41113281 15.27954102 C-4.46735692 10.06150814 -2.27323568 5.11478028 0 0 Z " fill="#EA2027" transform="translate(216,39)"/>
<path d="M0 0 C17.16 0 34.32 0 52 0 C50.411875 3.980625 48.82375 7.96125 47.1875 12.0625 C46.6927417 13.30394775 46.1979834 14.54539551 45.68823242 15.82446289 C43.52247289 21.24564751 41.33710762 26.65027525 39 32 C43.95 32.33 48.9 32.66 54 33 C52.8751006 39.74939643 52.8751006 39.74939643 51.56396484 42.78173828 C51.27158432 43.46716705 50.9792038 44.15259583 50.67796326 44.85879517 C50.35884476 45.58859589 50.03972626 46.31839661 49.7109375 47.0703125 C49.3752626 47.85304535 49.03958771 48.6357782 48.69374084 49.44223022 C47.9698972 51.12832457 47.24309849 52.81315279 46.51364136 54.49682617 C44.57836876 58.96375754 42.66405953 63.43968006 40.74609375 67.9140625 C40.35331741 68.82855164 39.96054108 69.74304077 39.55586243 70.6852417 C35.44702847 80.26132777 31.43453828 89.8768279 27.4375 99.5 C26.78240991 101.07569215 26.12729981 102.65137599 25.47216797 104.22705078 C23.97990487 107.81739599 22.48936313 111.4084509 21 115 C16.71 115 12.42 115 8 115 C5.84055517 86.83868692 3.73666935 58.67402714 1.75 30.5 C1.66141724 29.25195587 1.57283447 28.00391174 1.48156738 26.7180481 C1.23057523 23.17674778 0.98204345 19.63528414 0.734375 16.09375 C0.65956909 15.04086288 0.58476318 13.98797577 0.50769043 12.90318298 C0.4403772 11.93159744 0.37306396 10.9600119 0.30371094 9.95898438 C0.24471619 9.11734741 0.18572144 8.27571045 0.12493896 7.40856934 C-0.00300803 4.94201133 0 2.46987425 0 0 Z " fill="#231F20" transform="translate(154,39)"/>
<path d="M0 0 C1.32 0.33 2.64 0.66 4 1 C4.33 2.98 4.66 4.96 5 7 C5.66 7 6.32 7 7 7 C7.33 5.02 7.66 3.04 8 1 C9.32 0.67 10.64 0.34 12 0 C12 4.29 12 8.58 12 13 C11.34 13 10.68 13 10 13 C9.67 11.68 9.34 10.36 9 9 C8.34 10.32 7.68 11.64 7 13 C6.01 12.67 5.02 12.34 4 12 C3.67 11.01 3.34 10.02 3 9 C2.67 10.32 2.34 11.64 2 13 C1.34 13 0.68 13 0 13 C0 8.71 0 4.42 0 0 Z " fill="#231F20" transform="translate(831,0)"/>
<path d="M0 0 C2.97 0 5.94 0 9 0 C9 0.66 9 1.32 9 2 C8.01 2 7.02 2 6 2 C6 5.63 6 9.26 6 13 C5.01 13 4.02 13 3 13 C3 9.37 3 5.74 3 2 C2.01 2 1.02 2 0 2 C0 1.34 0 0.68 0 0 Z " fill="#231F20" transform="translate(821,0)"/>
</svg>
